name analog
datacolumns 19
datarows 59
range 0.313 0.342
endheader
time	ground_force_vx	ground_force_vy	ground_force_vz	ground_force_px	ground_force_py	ground_force_pz	l_ground_force_vx	l_ground_force_vy	l_ground_force_vz	l_ground_force_px	l_ground_force_py	l_ground_force_pz	ground_torque_x	ground_torque_y	ground_torque_z	l_ground_torque_x	l_ground_torque_y	l_ground_torque_z
0.313	-0.0	-0.0	-0.0	-0.0	-0.0	-0.0	2.734409809112549	2.311919689178467	-879.0818481445312	-0.0	-0.0	-0.0	-0.0	-0.0	-0.0	237817.390625	-22706.2265625	-1536.5150146484375
0.3135	-0.0	-0.0	-0.0	-0.0	-0.0	-0.0	5.860194683074951	5.267741680145264	-886.6995239257812	-0.0	-0.0	-0.0	-0.0	-0.0	-0.0	240672.390625	-23749.40234375	-802.48974609375
0.314	-0.0	-0.0	-0.0	-0.0	-0.0	-0.0	8.693656921386719	7.05513334274292	-894.0934448242188	-0.0	-0.0	-0.0	-0.0	-0.0	-0.0	243429.1875	-24186.400390625	-266.1228942871094
0.3145	-0.0	-0.0	-0.0	-0.0	-0.0	-0.0	9.314632415771484	7.700113296508789	-900.0066528320312	-0.0	-0.0	-0.0	-0.0	-0.0	-0.0	245381.921875	-24982.625	64.2975845336914
0.315	-0.0	-0.0	-0.0	-0.0	-0.0	-0.0	9.287343978881836	9.008811950683594	-902.9276123046876	-0.0	-0.0	-0.0	-0.0	-0.0	-0.0	246214.3125	-25219.8125	-61.384765625
0.3155	-0.0	-0.0	-0.0	-0.0	-0.0	-0.0	8.527234077453613	10.212464332580566	-903.4312133789062	-0.0	-0.0	-0.0	-0.0	-0.0	-0.0	247035.6875	-25469.296875	-254.63995361328125
0.316	-0.0	-0.0	-0.0	-0.0	-0.0	-0.0	8.316516876220703	11.051310539245604	-899.8075561523438	-0.0	-0.0	-0.0	-0.0	-0.0	-0.0	246623.65625	-24700.2578125	-341.6547241210937
0.3165	-0.0	-0.0	-0.0	-0.0	-0.0	-0.0	7.185573577880859	12.325780868530272	-895.50732421875	-0.0	-0.0	-0.0	-0.0	-0.0	-0.0	246174.15625	-24120.568359375	-549.72509765625
0.317	-0.0	-0.0	-0.0	-0.0	-0.0	-0.0	5.788896560668945	12.348089218139648	-891.07958984375	-0.0	-0.0	-0.0	-0.0	-0.0	-0.0	245230.0	-24111.146484375	-671.224853515625
0.3175	-0.0	-0.0	-0.0	-0.0	-0.0	-0.0	4.790382385253906	11.675633430480955	-890.7084350585938	-0.0	-0.0	-0.0	-0.0	-0.0	-0.0	245431.078125	-23453.2109375	-772.5819091796875
0.318	-0.0	-0.0	-0.0	-0.0	-0.0	-0.0	4.092310428619385	12.029094696044922	-888.9857788085938	-0.0	-0.0	-0.0	-0.0	-0.0	-0.0	245731.65625	-22762.4375	-943.283447265625
0.3185	-0.0	-0.0	-0.0	-0.0	-0.0	-0.0	4.246353149414063	13.142362594604492	-886.8450927734375	-0.0	-0.0	-0.0	-0.0	-0.0	-0.0	245729.984375	-22009.84375	-790.6370239257812
0.319	-0.0	-0.0	-0.0	-0.0	-0.0	-0.0	4.175330638885498	13.236457824707031	-886.12353515625	-0.0	-0.0	-0.0	-0.0	-0.0	-0.0	245552.515625	-21478.86328125	-796.578369140625
0.3195	-0.0	-0.0	-0.0	-0.0	-0.0	-0.0	3.3769755363464355	12.453357696533203	-884.33056640625	-0.0	-0.0	-0.0	-0.0	-0.0	-0.0	245449.234375	-20716.90234375	-763.705322265625
0.32	-0.0	-0.0	-0.0	-0.0	-0.0	-0.0	2.123018264770508	10.092728614807127	-882.774169921875	-0.0	-0.0	-0.0	-0.0	-0.0	-0.0	245824.625	-20293.677734375	-1059.7921142578125
0.3205	-0.0	-0.0	-0.0	-0.0	-0.0	-0.0	1.2941664457321167	8.972476959228516	-888.54296875	-0.0	-0.0	-0.0	-0.0	-0.0	-0.0	247456.796875	-19818.373046875	-1242.690185546875
0.321	-0.0	-0.0	-0.0	-0.0	-0.0	-0.0	1.15938138961792	8.05561637878418	-895.5255126953125	-0.0	-0.0	-0.0	-0.0	-0.0	-0.0	249911.5	-19956.390625	-1175.476806640625
0.3215	-0.0	-0.0	-0.0	-0.0	-0.0	-0.0	2.4776859283447266	9.249021530151367	-905.9750366210938	-0.0	-0.0	-0.0	-0.0	-0.0	-0.0	252955.453125	-20329.9609375	-877.4954223632812
0.322	-0.0	-0.0	-0.0	-0.0	-0.0	-0.0	5.215162754058838	10.95811939239502	-916.0753173828124	-0.0	-0.0	-0.0	-0.0	-0.0	-0.0	256013.515625	-20757.6640625	-368.6773071289063
0.3225	-0.0	-0.0	-0.0	-0.0	-0.0	-0.0	7.350329399108887	12.73093318939209	-919.6654052734376	-0.0	-0.0	-0.0	-0.0	-0.0	-0.0	257893.25	-21511.123046875	80.51226806640625
0.323	-0.0	-0.0	-0.0	-0.0	-0.0	-0.0	9.352350234985352	13.633270263671877	-924.1541748046876	-0.0	-0.0	-0.0	-0.0	-0.0	-0.0	259265.84375	-21532.263671875	461.4691467285156
0.3235	-0.0	-0.0	-0.0	-0.0	-0.0	-0.0	11.67765998840332	13.96763515472412	-925.5250244140624	-0.0	-0.0	-0.0	-0.0	-0.0	-0.0	259861.421875	-22168.046875	814.9330444335938
0.324	-0.0	-0.0	-0.0	-0.0	-0.0	-0.0	13.382312774658203	14.09907341003418	-926.3248291015624	-0.0	-0.0	-0.0	-0.0	-0.0	-0.0	259930.453125	-22459.6015625	1627.211669921875
0.3245	-0.0	-0.0	-0.0	-0.0	-0.0	-0.0	14.38424587249756	13.722463607788086	-927.2177734375	-0.0	-0.0	-0.0	-0.0	-0.0	-0.0	259819.921875	-22640.90234375	2007.7762451171875
0.325	-0.0	-0.0	-0.0	-0.0	-0.0	-0.0	14.929842948913574	11.868000030517578	-922.833740234375	-0.0	-0.0	-0.0	-0.0	-0.0	-0.0	258904.578125	-22499.796875	2521.818359375
0.3255	-0.0	-0.0	-0.0	-0.0	-0.0	-0.0	15.189592361450195	10.333637237548828	-917.97216796875	-0.0	-0.0	-0.0	-0.0	-0.0	-0.0	257243.109375	-22030.0546875	2897.54345703125
0.326	-0.0	-0.0	-0.0	-0.0	-0.0	-0.0	15.360413551330566	8.458799362182617	-913.0050048828124	-0.0	-0.0	-0.0	-0.0	-0.0	-0.0	255042.8125	-21901.169921875	3157.461181640625
0.3265	-0.0	-0.0	-0.0	-0.0	-0.0	-0.0	14.835097312927246	7.140518665313721	-905.9682006835938	-0.0	-0.0	-0.0	-0.0	-0.0	-0.0	252912.3125	-21341.416015625	3398.61181640625
0.327	-0.0	-0.0	-0.0	-0.0	-0.0	-0.0	14.28243637084961	6.461137771606445	-897.7498168945312	-0.0	-0.0	-0.0	-0.0	-0.0	-0.0	250379.6875	-20559.61328125	3521.32763671875
0.3275	-0.0	-0.0	-0.0	-0.0	-0.0	-0.0	13.211008071899414	5.020598888397217	-889.692626953125	-0.0	-0.0	-0.0	-0.0	-0.0	-0.0	248503.34375	-19761.86328125	3556.83984375
0.328	-0.0	-0.0	-0.0	-0.0	-0.0	-0.0	10.332293510437012	3.274845600128174	-886.7902221679688	-0.0	-0.0	-0.0	-0.0	-0.0	-0.0	247140.125	-18851.916015625	3204.900390625
0.3285	-0.0	-0.0	-0.0	-0.0	-0.0	-0.0	8.64002513885498	2.2220122814178467	-880.4044799804688	-0.0	-0.0	-0.0	-0.0	-0.0	-0.0	245630.171875	-17788.1875	2973.113037109375
0.329	-0.0	-0.0	-0.0	-0.0	-0.0	-0.0	6.926515579223633	1.8688422441482544	-878.5211181640625	-0.0	-0.0	-0.0	-0.0	-0.0	-0.0	244607.921875	-16926.884765625	2565.970947265625
0.3295	-0.0	-0.0	-0.0	-0.0	-0.0	-0.0	4.648707866668701	2.384685516357422	-878.0881958007812	-0.0	-0.0	-0.0	-0.0	-0.0	-0.0	244404.734375	-16631.921875	2292.82421875
0.33	-0.0	-0.0	-0.0	-0.0	-0.0	-0.0	3.8960835933685294	2.3250012397766118	-879.541259765625	-0.0	-0.0	-0.0	-0.0	-0.0	-0.0	245045.90625	-15800.642578125	2285.088134765625
0.3305	-0.0	-0.0	-0.0	-0.0	-0.0	-0.0	2.84601092338562	2.642416477203369	-882.626708984375	-0.0	-0.0	-0.0	-0.0	-0.0	-0.0	245746.15625	-15329.705078125	2086.467041015625
0.331	-0.0	-0.0	-0.0	-0.0	-0.0	-0.0	3.378316879272461	3.076709032058716	-887.1942138671875	-0.0	-0.0	-0.0	-0.0	-0.0	-0.0	246985.21875	-15435.3232421875	2230.4306640625
0.3315	-0.0	-0.0	-0.0	-0.0	-0.0	-0.0	4.672208786010742	4.3940839767456055	-892.6936645507812	-0.0	-0.0	-0.0	-0.0	-0.0	-0.0	249166.6875	-15168.0615234375	2701.403564453125
0.332	-0.0	-0.0	-0.0	-0.0	-0.0	-0.0	6.372295379638672	5.049152374267578	-898.77490234375	-0.0	-0.0	-0.0	-0.0	-0.0	-0.0	251076.546875	-15358.5400390625	3026.5703125
0.3325	-0.0	-0.0	-0.0	-0.0	-0.0	-0.0	7.459187984466553	7.25727653503418	-907.4156494140624	-0.0	-0.0	-0.0	-0.0	-0.0	-0.0	253171.671875	-15184.806640625	3262.687255859375
0.333	-0.0	-0.0	-0.0	-0.0	-0.0	-0.0	7.740459442138672	9.589527130126951	-912.2144165039062	-0.0	-0.0	-0.0	-0.0	-0.0	-0.0	255031.859375	-15066.5615234375	3122.6650390625
0.3335	-0.0	-0.0	-0.0	-0.0	-0.0	-0.0	7.4517059326171875	11.090621948242188	-915.0963745117188	-0.0	-0.0	-0.0	-0.0	-0.0	-0.0	255682.296875	-14839.3173828125	2777.058349609375
0.334	-0.0	-0.0	-0.0	-0.0	-0.0	-0.0	6.194441795349121	11.45895004272461	-914.39794921875	-0.0	-0.0	-0.0	-0.0	-0.0	-0.0	255959.46875	-14216.0244140625	2407.54296875
0.3345	-0.0	-0.0	-0.0	-0.0	-0.0	-0.0	5.484605312347412	11.75448226928711	-912.3939819335938	-0.0	-0.0	-0.0	-0.0	-0.0	-0.0	255051.9375	-13833.5166015625	2142.697021484375
0.335	-0.0	-0.0	-0.0	-0.0	-0.0	-0.0	5.145225524902344	10.855812072753906	-908.4925537109376	-0.0	-0.0	-0.0	-0.0	-0.0	-0.0	253353.640625	-13165.423828125	2026.17626953125
0.3355	-0.0	-0.0	-0.0	-0.0	-0.0	-0.0	5.977512359619141	8.8399658203125	-903.2860717773438	-0.0	-0.0	-0.0	-0.0	-0.0	-0.0	251607.09375	-13158.408203125	2177.209228515625
0.336	-0.0	-0.0	-0.0	-0.0	-0.0	-0.0	6.136857032775879	6.237620830535889	-896.1098022460938	-0.0	-0.0	-0.0	-0.0	-0.0	-0.0	249621.515625	-12595.5224609375	2349.408203125
0.3365	-0.0	-0.0	-0.0	-0.0	-0.0	-0.0	7.782653331756592	4.166979789733887	-894.7501831054688	-0.0	-0.0	-0.0	-0.0	-0.0	-0.0	247916.078125	-12563.150390625	2878.67822265625
0.337	-0.0	-0.0	-0.0	-0.0	-0.0	-0.0	9.354663848876951	3.083287715911865	-893.161376953125	-0.0	-0.0	-0.0	-0.0	-0.0	-0.0	247500.921875	-12302.1923828125	3181.488525390625
0.3375	-0.0	-0.0	-0.0	-0.0	-0.0	-0.0	9.976015090942385	2.2963638305664062	-890.6221923828125	-0.0	-0.0	-0.0	-0.0	-0.0	-0.0	246540.328125	-12035.9375	3440.599609375
0.338	-0.0	-0.0	-0.0	-0.0	-0.0	-0.0	8.411279678344727	0.4739556908607483	-885.0673828125	-0.0	-0.0	-0.0	-0.0	-0.0	-0.0	243900.625	-11631.943359375	2818.966796875
0.3385	-0.0	-0.0	-0.0	-0.0	-0.0	-0.0	5.541055679321289	-1.8057866096496584	-880.1788940429688	-0.0	-0.0	-0.0	-0.0	-0.0	-0.0	242216.578125	-10882.544921875	2144.775390625
0.339	-0.0	-0.0	-0.0	-0.0	-0.0	-0.0	2.968653440475464	-3.0193440914154053	-876.7197265625	-0.0	-0.0	-0.0	-0.0	-0.0	-0.0	240775.078125	-10163.9443359375	1352.7574462890625
0.3395	-0.0	-0.0	-0.0	-0.0	-0.0	-0.0	1.0728275775909424	-3.902677774429321	-878.9125366210938	-0.0	-0.0	-0.0	-0.0	-0.0	-0.0	241316.6875	-10219.3984375	862.8037109375
0.34	-0.0	-0.0	-0.0	-0.0	-0.0	-0.0	0.122203528881073	-4.0544610023498535	-880.408935546875	-0.0	-0.0	-0.0	-0.0	-0.0	-0.0	241602.4375	-10002.439453125	393.0893249511719
0.3405	-0.0	-0.0	-0.0	-0.0	-0.0	-0.0	-0.1140060871839523	-4.390900135040283	-883.7691040039062	-0.0	-0.0	-0.0	-0.0	-0.0	-0.0	241701.90625	-10205.712890625	337.8551025390625
0.341	-0.0	-0.0	-0.0	-0.0	-0.0	-0.0	0.418135792016983	-4.054361820220947	-886.4292602539062	-0.0	-0.0	-0.0	-0.0	-0.0	-0.0	241493.4375	-10724.052734375	156.08734130859375
0.3415	-0.0	-0.0	-0.0	-0.0	-0.0	-0.0	1.2334033250808716	-5.0971269607543945	-889.188232421875	-0.0	-0.0	-0.0	-0.0	-0.0	-0.0	241044.046875	-11126.63671875	393.7898254394531
0.342	-0.0	-0.0	-0.0	-0.0	-0.0	-0.0	2.2091805934906006	-5.105555057525635	-889.6383056640625	-0.0	-0.0	-0.0	-0.0	-0.0	-0.0	241494.3125	-11590.294921875	673.93115234375
